<svg width="17" height="17" viewBox="0 0 17 17" fill="none" xmlns="http://www.w3.org/2000/svg">
<path d="M4.25 2.25V0.75H5.75V2.25H10.25V0.75H11.75V2.25H14.75C15.1642 2.25 15.5 2.58579 15.5 3V6.75H14V3.75H11.75V5.25H10.25V3.75H5.75V5.25H4.25V3.75H2V14.25H6.5V15.75H1.25C0.83579 15.75 0.5 15.4142 0.5 15V3C0.5 2.58579 0.83579 2.25 1.25 2.25H4.25ZM11.75 9C10.0932 9 8.75 10.3432 8.75 12C8.75 13.6568 10.0932 15 11.75 15C13.4068 15 14.75 13.6568 14.75 12C14.75 10.3432 13.4068 9 11.75 9ZM7.25 12C7.25 9.51472 9.26472 7.5 11.75 7.5C14.2353 7.5 16.25 9.51472 16.25 12C16.25 14.4853 14.2353 16.5 11.75 16.5C9.26472 16.5 7.25 14.4853 7.25 12ZM11 9.75V12.3106L12.7197 14.0303L13.7803 12.9697L12.5 11.6894V9.75H11Z" fill="#64748B"/>
</svg>
