<svg width="16" height="16" viewBox="0 0 16 16" fill="none" xmlns="http://www.w3.org/2000/svg">
<path d="M5.75 0.75V2.25H10.25V0.75H11.75V2.25H14.75C15.1642 2.25 15.5 2.58579 15.5 3V15C15.5 15.4142 15.1642 15.75 14.75 15.75H1.25C0.83579 15.75 0.5 15.4142 0.5 15V3C0.5 2.58579 0.83579 2.25 1.25 2.25H4.25V0.75H5.75ZM14 7.5H2V14.25H14V7.5ZM10.2766 8.352L11.3373 9.41272L7.625 13.125L4.97335 10.4734L6.03401 9.41272L7.625 11.0037L10.2766 8.352ZM4.25 3.75H2V6H14V3.75H11.75V4.5H10.25V3.75H5.75V4.5H4.25V3.75Z" fill="#64748B"/>
</svg>
