<svg width="129" height="133" viewBox="0 0 129 133" fill="none" xmlns="http://www.w3.org/2000/svg">
<g clip-path="url(#clip0_333_7659)">
<path d="M114.135 101.217L114.132 101.277L117.132 133H95.2405L92.4028 113.517L91.1539 132.501L68.6729 132.251L71.0608 107.327L73.0916 95.7742V95.7717L73.3964 94.0332H113.538L113.59 94.6627L114.135 101.217Z" fill="#2F2E41"/>
<path d="M56.2821 119.607C58.6006 120.029 61.0182 117.418 61.682 113.775C61.9725 112.18 61.8787 110.652 61.4871 109.402L61.8426 107.302L67.8084 79.0485C67.8084 79.0485 78.7942 57.0732 78.7939 53.2582C78.7936 49.4432 75.616 47.5723 75.616 47.5723L71.3161 47.6125L57.8318 80.5464L55.4033 104.883L55.0104 108.222C54.2032 109.254 53.5765 110.651 53.286 112.245C52.6222 115.889 53.9636 119.185 56.2821 119.607Z" fill="#FFB6B6"/>
<path d="M100.023 33.959L96.0264 24.7168L83.0373 26.9649L82.1631 37.8386L100.023 33.959Z" fill="#FFB6B6"/>
<path opacity="0.1" d="M100.023 33.959L96.0264 24.7168L83.0373 26.9649L82.1631 37.8386L100.023 33.959Z" fill="black"/>
<path d="M128.248 53.1917C128.248 53.1917 119.006 35.9563 117.258 34.2077C116.479 33.4293 115.256 33.4185 114.137 33.6454L101.271 29.212L96.9102 26.7617L96.6228 31.4233L82.306 33.993C82.3855 31.1502 82.7866 30.0689 82.7866 30.0689L77.541 36.2061L67.2996 41.2018L67.3052 41.2468C66.5537 41.5092 65.8411 41.9581 65.3013 42.7006C63.303 45.4483 57.8076 78.92 57.8076 78.92L69.5477 81.4179L71.1455 71.3915L72.2954 80.4188L73.1697 97.2796C73.1697 97.2796 89.1562 111.018 96.8997 106.022C104.643 101.026 114.135 101.276 114.135 101.276L114.372 93.4608C114.541 93.1914 114.635 93.0331 114.635 93.0331L114.385 65.3105V57.9337C116.288 60.5848 118.584 62.8648 121.254 63.9327C129.997 67.4297 128.248 53.1917 128.248 53.1917Z" fill="#E6E6E6"/>
<path d="M88.1732 28.5905C94.7727 28.5905 100.123 23.2405 100.123 16.641C100.123 10.0414 94.7727 4.69141 88.1732 4.69141C81.5736 4.69141 76.2236 10.0414 76.2236 16.641C76.2236 23.2405 81.5736 28.5905 88.1732 28.5905Z" fill="#FFB6B6"/>
<path d="M96.7472 20.018C96.7472 20.018 97.7863 16.3812 100.124 16.641C102.462 16.9007 102.982 14.8225 102.462 13.7835C101.943 12.7444 100.904 7.54891 100.904 7.54891C100.904 7.54891 101.423 3.91209 98.3059 3.39254C95.1886 2.873 94.1495 2.35345 93.63 1.31436C93.1104 0.275266 85.3173 -0.763825 82.7195 0.794814C80.1218 2.35345 78.0436 5.3439 76.2252 6.18663C74.4068 7.02936 72.8482 8.588 73.8872 11.1857C74.9263 13.7835 76.4333 18.8641 76.4333 18.8641C76.4333 18.8641 79.0827 17.9398 79.6022 19.4985C80.1218 21.0571 78.0436 18.9789 80.6413 14.8225C83.2391 10.6662 83.2391 6.50981 87.3954 8.06845C91.5518 9.62709 96.2277 9.10754 95.7082 12.2248C95.1886 15.3421 96.7472 20.018 96.7472 20.018Z" fill="#2F2E41"/>
<path d="M96.0153 114.749H5.26278C2.6963 114.749 0.608398 112.661 0.608398 110.094V61.8868C0.608398 59.3205 2.6963 57.2324 5.26278 57.2324H96.0153C98.5818 57.2324 100.67 59.3205 100.67 61.8868V110.094C100.67 112.661 98.5818 114.749 96.0153 114.749Z" fill="white"/>
<path d="M96.0153 114.749H5.26278C2.6963 114.749 0.608398 112.661 0.608398 110.094V61.8868C0.608398 59.3205 2.6963 57.2324 5.26278 57.2324H96.0153C98.5818 57.2324 100.67 59.3205 100.67 61.8868V110.094C100.67 112.661 98.5818 114.749 96.0153 114.749ZM5.26278 58.0097C3.12497 58.0097 1.38565 59.749 1.38565 61.8868V110.094C1.38565 112.232 3.12497 113.972 5.26278 113.972H96.0153C98.1532 113.972 99.8925 112.232 99.8925 110.094V61.8868C99.8925 59.749 98.1532 58.0097 96.0153 58.0097H5.26278Z" fill="#3F3D56"/>
<path d="M89.0106 63.0622C89.6545 63.0622 90.1765 62.5402 90.1765 61.8963C90.1765 61.2524 89.6545 60.7305 89.0106 60.7305C88.3667 60.7305 87.8447 61.2524 87.8447 61.8963C87.8447 62.5402 88.3667 63.0622 89.0106 63.0622Z" fill="#3F3D56"/>
<path d="M92.12 63.0622C92.7639 63.0622 93.2858 62.5402 93.2858 61.8963C93.2858 61.2524 92.7639 60.7305 92.12 60.7305C91.4761 60.7305 90.9541 61.2524 90.9541 61.8963C90.9541 62.5402 91.4761 63.0622 92.12 63.0622Z" fill="#3F3D56"/>
<path d="M95.2293 63.0622C95.8732 63.0622 96.3952 62.5402 96.3952 61.8963C96.3952 61.2524 95.8732 60.7305 95.2293 60.7305C94.5855 60.7305 94.0635 61.2524 94.0635 61.8963C94.0635 62.5402 94.5855 63.0622 95.2293 63.0622Z" fill="#3F3D56"/>
<path d="M7.21477 80.7441C6.89332 80.7441 6.63184 81.0056 6.63184 81.3271C6.63184 81.4838 6.69237 81.6288 6.80224 81.7358C6.91306 81.8493 7.05822 81.91 7.21477 81.91H94.4515C94.7729 81.91 95.0344 81.6485 95.0344 81.3271C95.0344 81.1703 94.9739 81.0254 94.864 80.9183C94.7532 80.8049 94.608 80.7441 94.4515 80.7441H7.21477Z" fill="#E6E6E6"/>
<path d="M83.571 80.5508V82.1053H7.21573C7.00199 82.1053 6.80768 82.0198 6.66778 81.876C6.52396 81.7361 6.43848 81.5418 6.43848 81.328C6.43848 80.9005 6.78825 80.5508 7.21572 80.5508H83.571Z" fill="url(#paint0_linear_333_7659)"/>
<path d="M93.4803 77.6344H85.7078C84.8507 77.6344 84.1533 76.9372 84.1533 76.0799C84.1533 75.2226 84.8507 74.5254 85.7078 74.5254H93.4803C94.3374 74.5254 95.0348 75.2226 95.0348 76.0799C95.0348 76.9372 94.3374 77.6344 93.4803 77.6344Z" fill="#E6E6E6"/>
<path d="M42.5701 69.4742H7.79766C6.94052 69.4742 6.24316 68.7771 6.24316 67.9197C6.24316 67.0624 6.94052 66.3652 7.79766 66.3652H42.5701C43.4273 66.3652 44.1246 67.0624 44.1246 67.9197C44.1246 68.7771 43.4273 69.4742 42.5701 69.4742Z" fill="#E6E6E6"/>
<path d="M7.21477 98.2324C6.89332 98.2324 6.63184 98.4939 6.63184 98.8154C6.63184 98.9721 6.69237 99.1171 6.80224 99.2241C6.91306 99.3376 7.05822 99.3983 7.21477 99.3983H94.4515C94.7729 99.3983 95.0344 99.1368 95.0344 98.8154C95.0344 98.6586 94.9739 98.5136 94.864 98.4066C94.7532 98.2931 94.608 98.2324 94.4515 98.2324H7.21477Z" fill="#E6E6E6"/>
<path d="M53.6469 98.0371V99.5916H7.21573C7.00199 99.5916 6.80768 99.5061 6.66778 99.3623C6.52396 99.2224 6.43848 99.0281 6.43848 98.8144C6.43848 98.3869 6.78825 98.0371 7.21572 98.0371H53.6469Z" fill="url(#paint1_linear_333_7659)"/>
<path d="M93.4803 95.1227H85.7078C84.8507 95.1227 84.1533 94.4255 84.1533 93.5682C84.1533 92.7108 84.8507 92.0137 85.7078 92.0137H93.4803C94.3374 92.0137 95.0348 92.7108 95.0348 93.5682C95.0348 94.4255 94.3374 95.1227 93.4803 95.1227Z" fill="#E6E6E6"/>
<path d="M107.088 29.5095C113.81 29.5095 119.26 24.175 119.26 17.5946C119.26 11.0142 113.81 5.67969 107.088 5.67969C100.366 5.67969 94.917 11.0142 94.917 17.5946C94.917 24.175 100.366 29.5095 107.088 29.5095Z" fill="url(#paint2_linear_333_7659)"/>
<path d="M111.22 11.5845C109.599 14.5351 107.979 17.4856 106.359 20.4362C105.326 18.6115 104.299 16.7836 103.264 14.9603C102.906 14.3306 101.933 14.897 102.292 15.5282C103.492 17.6418 104.68 19.7624 105.88 21.876C106.085 22.2374 106.648 22.2458 106.851 21.876C108.631 18.6348 110.411 15.3936 112.191 12.1525C112.54 11.5173 111.569 10.9489 111.22 11.5845Z" fill="white"/>
<path d="M123.889 49.0023L111.762 43.2013C111.762 43.2013 111.275 39.3187 109.001 37.9338C108.614 37.0114 108.17 35.9981 107.766 35.1953C106.766 33.2097 108.265 29.4629 107.016 29.4629C105.767 29.4629 103.921 33.4034 104.019 34.4587C104.094 35.2687 104.763 36.683 104.901 37.921C103.379 38.4954 102.15 39.4799 101.342 40.2638C100.643 40.9421 100.383 41.9542 100.656 42.8892C101.448 45.5987 103.427 51.1946 106.267 51.1946C110.014 51.1946 111.013 50.4452 111.013 50.4452C111.013 50.4452 118.756 60.187 124.501 60.9364C130.247 61.6857 123.889 49.0023 123.889 49.0023Z" fill="#FFB6B6"/>
</g>
<defs>
<linearGradient id="paint0_linear_333_7659" x1="83.571" y1="82.1053" x2="82.2292" y2="71.2139" gradientUnits="userSpaceOnUse">
<stop stop-color="#174880"/>
<stop offset="1" stop-color="#3981EC"/>
</linearGradient>
<linearGradient id="paint1_linear_333_7659" x1="53.6469" y1="99.5916" x2="51.5081" y2="88.9654" gradientUnits="userSpaceOnUse">
<stop stop-color="#174880"/>
<stop offset="1" stop-color="#3981EC"/>
</linearGradient>
<linearGradient id="paint2_linear_333_7659" x1="119.26" y1="29.5095" x2="91.7042" y2="24.9046" gradientUnits="userSpaceOnUse">
<stop stop-color="#174880"/>
<stop offset="1" stop-color="#3981EC"/>
</linearGradient>
<clipPath id="clip0_333_7659">
<rect width="127.783" height="133" fill="white" transform="translate(0.608398)"/>
</clipPath>
</defs>
</svg>
