<svg width="14" height="14" viewBox="0 0 14 14" fill="none" xmlns="http://www.w3.org/2000/svg">
<path d="M7.00065 13.6663C3.31875 13.6663 0.333984 10.6815 0.333984 6.99967C0.333984 3.31777 3.31875 0.333008 7.00065 0.333008C10.6825 0.333008 13.6673 3.31777 13.6673 6.99967C13.6673 10.6815 10.6825 13.6663 7.00065 13.6663ZM7.00065 12.333C9.94618 12.333 12.334 9.94521 12.334 6.99967C12.334 4.05415 9.94618 1.66634 7.00065 1.66634C4.05513 1.66634 1.66732 4.05415 1.66732 6.99967C1.66732 9.94521 4.05513 12.333 7.00065 12.333ZM6.33398 8.99967H7.66732V10.333H6.33398V8.99967ZM6.33398 3.66634H7.66732V7.66634H6.33398V3.66634Z" fill="#007AFF"/>
</svg>
