<svg width="130" height="168" viewBox="0 0 130 168" fill="none" xmlns="http://www.w3.org/2000/svg">
<path d="M110.241 41.8184H19.1475C8.81751 41.8184 0.443359 50.1925 0.443359 60.5225V148.854C0.443359 159.184 8.81749 167.558 19.1475 167.558H110.241C120.571 167.558 128.945 159.184 128.945 148.854V60.5225C128.945 50.1925 120.571 41.8184 110.241 41.8184Z" fill="white"/>
<path d="M110.241 168H19.1471C8.58944 168 0 159.411 0 148.853V60.5221C0 49.9644 8.58944 41.375 19.1471 41.375H110.241C120.798 41.375 129.388 49.9644 129.388 60.5221V148.853C129.388 159.411 120.798 168 110.241 168ZM19.1471 42.2608C9.07776 42.2608 0.885826 50.4528 0.885826 60.5221V148.853C0.885826 158.923 9.07777 167.114 19.1471 167.114H110.241C120.31 167.114 128.502 158.923 128.502 148.853V60.5221C128.502 50.4528 120.31 42.2608 110.241 42.2608H19.1471Z" fill="#3F3D56"/>
<path d="M100.628 50.5077C101.794 50.5077 102.74 49.562 102.74 48.3955C102.74 47.2289 101.794 46.2832 100.628 46.2832C99.4613 46.2832 98.5156 47.2289 98.5156 48.3955C98.5156 49.562 99.4613 50.5077 100.628 50.5077Z" fill="#3F3D56"/>
<path d="M106.436 50.5077C107.603 50.5077 108.549 49.562 108.549 48.3955C108.549 47.2289 107.603 46.2832 106.436 46.2832C105.27 46.2832 104.324 47.2289 104.324 48.3955C104.324 49.562 105.27 50.5077 106.436 50.5077Z" fill="#3F3D56"/>
<path d="M112.247 50.5077C113.414 50.5077 114.359 49.562 114.359 48.3955C114.359 47.2289 113.414 46.2832 112.247 46.2832C111.08 46.2832 110.135 47.2289 110.135 48.3955C110.135 49.562 111.08 50.5077 112.247 50.5077Z" fill="#3F3D56"/>
<path d="M16.1608 136.633C15.5045 136.633 14.9707 137.167 14.9707 137.823C14.9707 138.143 15.0943 138.439 15.3186 138.657C15.5448 138.889 15.8412 139.013 16.1608 139.013H111.431C112.087 139.013 112.621 138.479 112.621 137.823C112.621 137.503 112.497 137.207 112.273 136.988C112.047 136.757 111.75 136.633 111.431 136.633H16.1608Z" fill="#E6E6E6"/>
<path d="M67.1023 136.237V139.41H16.161C15.7246 139.41 15.3279 139.236 15.0423 138.942C14.7487 138.656 14.5742 138.26 14.5742 137.823C14.5742 136.951 15.2883 136.237 16.161 136.237L67.1023 136.237Z" fill="url(#paint0_linear_333_6450)"/>
<path d="M109.447 130.286H93.5798C91.8299 130.286 90.4062 128.863 90.4062 127.113C90.4062 125.363 91.8299 123.939 93.5798 123.939H109.447C111.197 123.939 112.621 125.363 112.621 127.113C112.621 128.863 111.197 130.286 109.447 130.286Z" fill="#E6E6E6"/>
<path d="M49.8339 132.553L38.7416 95.2832L37.8926 95.5358L48.9459 132.675" fill="#2F2E41"/>
<path d="M50.2193 47.7337C60.3431 46.9856 67.7829 35.9967 66.8364 23.1894C65.89 10.3821 56.9157 0.606175 46.7918 1.35433C36.668 2.10248 29.2282 13.0914 30.1747 25.8987C31.1211 38.706 40.0954 48.4819 50.2193 47.7337Z" fill="url(#paint1_linear_333_6450)"/>
<path d="M49.8331 47.7344H48.9473V136.068H49.8331V47.7344Z" fill="#2F2E41"/>
<path d="M39.2415 94.2051L40.236 97.1749L42.4181 99.5488L36.6758 100.943L38.3419 97.8442L37.2621 95.1982L39.2415 94.2051Z" fill="url(#paint2_linear_333_6450)"/>
<path d="M50.0545 45.8691L50.1608 48.9992L51.5753 51.8968L45.6738 51.5958L48.1545 49.1006L47.8741 46.2565L50.0545 45.8691Z" fill="url(#paint3_linear_333_6450)"/>
<path d="M39.5395 94.9821C49.021 91.3551 52.9875 78.6913 48.3991 66.6968C43.8107 54.7022 32.4049 47.919 22.9235 51.546C13.4421 55.173 9.47549 67.8368 14.0639 79.8314C18.6523 91.8259 30.0581 98.6092 39.5395 94.9821Z" fill="url(#paint4_linear_333_6450)"/>
<defs>
<linearGradient id="paint0_linear_333_6450" x1="67.1023" y1="139.41" x2="59.7666" y2="119.547" gradientUnits="userSpaceOnUse">
<stop stop-color="#174880"/>
<stop offset="1" stop-color="#3981EC"/>
</linearGradient>
<linearGradient id="paint1_linear_333_6450" x1="68.5502" y1="46.3791" x2="26.1914" y2="44.0539" gradientUnits="userSpaceOnUse">
<stop stop-color="#174880"/>
<stop offset="1" stop-color="#3981EC"/>
</linearGradient>
<linearGradient id="paint2_linear_333_6450" x1="42.4181" y1="100.943" x2="35.8638" y2="100.029" gradientUnits="userSpaceOnUse">
<stop stop-color="#174880"/>
<stop offset="1" stop-color="#3981EC"/>
</linearGradient>
<linearGradient id="paint3_linear_333_6450" x1="51.5753" y1="51.8968" x2="44.8801" y2="50.8245" gradientUnits="userSpaceOnUse">
<stop stop-color="#174880"/>
<stop offset="1" stop-color="#3981EC"/>
</linearGradient>
<linearGradient id="paint4_linear_333_6450" x1="56.7072" y1="88.4148" x2="15.4681" y2="98.3653" gradientUnits="userSpaceOnUse">
<stop stop-color="#174880"/>
<stop offset="1" stop-color="#3981EC"/>
</linearGradient>
</defs>
</svg>
