<svg width="12" height="15" viewBox="0 0 12 15" fill="none" xmlns="http://www.w3.org/2000/svg">
<path d="M2 4.69303V4.02637C2 1.81723 3.79086 0.0263672 6 0.0263672C8.20913 0.0263672 10 1.81723 10 4.02637V4.69303H11.3333C11.7015 4.69303 12 4.99151 12 5.3597V13.3597C12 13.7279 11.7015 14.0264 11.3333 14.0264H0.666667C0.29848 14.0264 0 13.7279 0 13.3597V5.3597C0 4.99151 0.29848 4.69303 0.666667 4.69303H2ZM10.6667 6.02637H1.33333V12.693H10.6667V6.02637ZM5.33333 9.84797C4.9348 9.61743 4.66667 9.18657 4.66667 8.69303C4.66667 7.95663 5.2636 7.3597 6 7.3597C6.7364 7.3597 7.33333 7.95663 7.33333 8.69303C7.33333 9.18657 7.0652 9.61743 6.66667 9.84797V11.3597H5.33333V9.84797ZM3.33333 4.69303H8.66667V4.02637C8.66667 2.55361 7.47273 1.3597 6 1.3597C4.52724 1.3597 3.33333 2.55361 3.33333 4.02637V4.69303Z" fill="#64748B"/>
</svg>
