<svg width="12" height="15" viewBox="0 0 12 15" fill="none" xmlns="http://www.w3.org/2000/svg">
<path d="M0.666748 14.6287C0.666748 11.6831 3.05456 9.29533 6.00008 9.29533C8.94561 9.29533 11.3334 11.6831 11.3334 14.6287H10.0001C10.0001 12.4195 8.20921 10.6287 6.00008 10.6287C3.79094 10.6287 2.00008 12.4195 2.00008 14.6287H0.666748ZM6.00008 8.62866C3.79008 8.62866 2.00008 6.83866 2.00008 4.62866C2.00008 2.41866 3.79008 0.628662 6.00008 0.628662C8.21008 0.628662 10.0001 2.41866 10.0001 4.62866C10.0001 6.83866 8.21008 8.62866 6.00008 8.62866ZM6.00008 7.29533C7.47341 7.29533 8.66675 6.102 8.66675 4.62866C8.66675 3.15533 7.47341 1.962 6.00008 1.962C4.52675 1.962 3.33341 3.15533 3.33341 4.62866C3.33341 6.102 4.52675 7.29533 6.00008 7.29533Z" fill="#64748B"/>
</svg>
